<svg xmlns:xlink="http://www.w3.org/1999/xlink" xmlns="http://www.w3.org/2000/svg" class="css-ze2te4 css-qd6ojx" viewBox="0 0 70.00000000000001 67.69845688547956" width="110"  height="106" ><g transform="translate(-9.409725479398551, -22.311638804802605) scale(0.9791581624349611)" class="css-e0ez8k" fill="#0E2F56"><path xmlns="http://www.w3.org/2000/svg" d="M41.601,58.56c0-1.603-1.303-3.007-3.007-3.007s-3.007,1.303-3.007,3.007c0,1.604,1.303,3.007,3.007,3.007  C40.298,61.567,41.601,60.264,41.601,58.56z" fill="#0E2F56"></path><path xmlns="http://www.w3.org/2000/svg" d="M50.621,58.56c0-1.603-1.303-3.007-3.007-3.007s-3.007,1.303-3.007,3.007c0,1.604,1.303,3.007,3.007,3.007  C49.318,61.567,50.621,60.264,50.621,58.56z" fill="#0E2F56"></path><path xmlns="http://www.w3.org/2000/svg" d="M59.64,58.56c0-1.603-1.303-3.007-3.007-3.007s-3.007,1.303-3.007,3.007c0,1.604,1.303,3.007,3.007,3.007  S59.64,60.264,59.64,58.56z" fill="#0E2F56"></path><path xmlns="http://www.w3.org/2000/svg" d="M68.66,58.56c0-1.603-1.303-3.007-3.007-3.007c-1.603,0-3.007,1.303-3.007,3.007c0,1.604,1.303,3.007,3.007,3.007  C67.357,61.567,68.66,60.264,68.66,58.56z" fill="#0E2F56"></path><path xmlns="http://www.w3.org/2000/svg" d="M70.163,47.035c-1.604,0-3.007,1.303-3.007,3.007s1.303,3.007,3.007,3.007s3.007-1.303,3.007-3.007  S71.867,47.035,70.163,47.035z" fill="#0E2F56"></path><path xmlns="http://www.w3.org/2000/svg" d="M62.647,41.623c0,1.604,1.303,3.007,3.007,3.007c1.604,0,3.007-1.303,3.007-3.007s-1.303-3.007-3.007-3.007  C64.05,38.717,62.647,40.02,62.647,41.623z" fill="#0E2F56"></path><path xmlns="http://www.w3.org/2000/svg" d="M61.144,47.035c-1.604,0-3.007,1.303-3.007,3.007s1.303,3.007,3.007,3.007c1.704,0,3.007-1.303,3.007-3.007  S62.847,47.035,61.144,47.035z" fill="#0E2F56"></path><path xmlns="http://www.w3.org/2000/svg" d="M53.727,41.623c0,1.604,1.303,3.007,3.007,3.007s3.007-1.303,3.007-3.007s-1.303-3.007-3.007-3.007  S53.727,40.02,53.727,41.623z" fill="#0E2F56"></path><path xmlns="http://www.w3.org/2000/svg" d="M52.124,47.035c-1.604,0-3.007,1.303-3.007,3.007s1.303,3.007,3.007,3.007s3.007-1.303,3.007-3.007  S53.828,47.035,52.124,47.035z" fill="#0E2F56"></path><path xmlns="http://www.w3.org/2000/svg" d="M44.708,41.623c0,1.604,1.303,3.007,3.007,3.007s3.007-1.303,3.007-3.007s-1.303-3.007-3.007-3.007  C46.011,38.616,44.708,40.02,44.708,41.623z" fill="#0E2F56"></path><path xmlns="http://www.w3.org/2000/svg" d="M43.104,47.035c-1.604,0-3.007,1.303-3.007,3.007s1.303,3.007,3.007,3.007c1.603,0,3.007-1.303,3.007-3.007  S44.808,47.035,43.104,47.035z" fill="#0E2F56"></path><path xmlns="http://www.w3.org/2000/svg" d="M35.688,41.623c0,1.604,1.303,3.007,3.007,3.007s3.007-1.303,3.007-3.007s-1.303-3.007-3.007-3.007  C36.991,38.616,35.688,40.02,35.688,41.623z" fill="#0E2F56"></path><path xmlns="http://www.w3.org/2000/svg" d="M31.178,50.041c0,1.604,1.303,3.007,3.007,3.007s3.007-1.303,3.007-3.007s-1.303-3.007-3.007-3.007  C32.481,47.035,31.178,48.438,31.178,50.041z" fill="#0E2F56"></path><circle xmlns="http://www.w3.org/2000/svg" cx="67.426" cy="87.9" r="4.026" fill="#0E2F56"></circle><circle xmlns="http://www.w3.org/2000/svg" cx="25.074" cy="87.9" r="4.026" fill="#0E2F56"></circle><path xmlns="http://www.w3.org/2000/svg" d="M77,34.9l-55.5-3.4l-1.5-5c-0.2-0.8-1.4-3.4-7.7-3.7c-2.463-0.153-2.588,1.05-2.588,1.05C9.197,25.663,10.8,25.6,10.8,25.6  c4.4,0,6,1.1,6.2,1.5L29,67l-5.2,8.2c-0.2,0.3-1.2,1.7-0.4,3.2c0.6,1.1,1.8,1.4,3.5,1.4h43.7c0.7,0,1.2,0.8,1.2,1.4  c0,0.8,0.7,1.6,1.5,1.6c0.8,0,1.5-0.9,1.5-1.7c0-2.3-1.9-4.3-4.2-4.3H26.5l5.1-8.1l40.7-1.9c2.1,0,3.7-1.6,4.1-3.9L81.1,39  C81.1,36.7,79.2,34.9,77,34.9z M73.5,62.4c-0.1,0.3-0.3,1.4-1.3,1.4l-40.4,2l-9.4-31.4l54.5,3.2c0.6,0,1.1,0.5,1.2,1L73.5,62.4z" fill="#0E2F56"></path></g></svg>