<svg xmlns:xlink="http://www.w3.org/1999/xlink" xmlns="http://www.w3.org/2000/svg" viewBox="0 0 390.00000000000006 87.69845688547956" preserveAspectRatio="xMidYMid meet" class="css-8aabad" id="gdaddfbe" width="418"  height="94" ><defs id="SvgjsDefs1438"></defs><g id="SvgjsG1439" featurekey="xG21Y3-0" transform="matrix(0.9791581624349611,0,0,0.9791581624349611,10.590274520601449,-2.3116388048026053)" fill="#111111"><path xmlns="http://www.w3.org/2000/svg" d="M41.601,58.56c0-1.603-1.303-3.007-3.007-3.007s-3.007,1.303-3.007,3.007c0,1.604,1.303,3.007,3.007,3.007  C40.298,61.567,41.601,60.264,41.601,58.56z" fill="#111111"></path><path xmlns="http://www.w3.org/2000/svg" d="M50.621,58.56c0-1.603-1.303-3.007-3.007-3.007s-3.007,1.303-3.007,3.007c0,1.604,1.303,3.007,3.007,3.007  C49.318,61.567,50.621,60.264,50.621,58.56z" fill="#111111"></path><path xmlns="http://www.w3.org/2000/svg" d="M59.64,58.56c0-1.603-1.303-3.007-3.007-3.007s-3.007,1.303-3.007,3.007c0,1.604,1.303,3.007,3.007,3.007  S59.64,60.264,59.64,58.56z" fill="#111111"></path><path xmlns="http://www.w3.org/2000/svg" d="M68.66,58.56c0-1.603-1.303-3.007-3.007-3.007c-1.603,0-3.007,1.303-3.007,3.007c0,1.604,1.303,3.007,3.007,3.007  C67.357,61.567,68.66,60.264,68.66,58.56z" fill="#111111"></path><path xmlns="http://www.w3.org/2000/svg" d="M70.163,47.035c-1.604,0-3.007,1.303-3.007,3.007s1.303,3.007,3.007,3.007s3.007-1.303,3.007-3.007  S71.867,47.035,70.163,47.035z" fill="#111111"></path><path xmlns="http://www.w3.org/2000/svg" d="M62.647,41.623c0,1.604,1.303,3.007,3.007,3.007c1.604,0,3.007-1.303,3.007-3.007s-1.303-3.007-3.007-3.007  C64.05,38.717,62.647,40.02,62.647,41.623z" fill="#111111"></path><path xmlns="http://www.w3.org/2000/svg" d="M61.144,47.035c-1.604,0-3.007,1.303-3.007,3.007s1.303,3.007,3.007,3.007c1.704,0,3.007-1.303,3.007-3.007  S62.847,47.035,61.144,47.035z" fill="#111111"></path><path xmlns="http://www.w3.org/2000/svg" d="M53.727,41.623c0,1.604,1.303,3.007,3.007,3.007s3.007-1.303,3.007-3.007s-1.303-3.007-3.007-3.007  S53.727,40.02,53.727,41.623z" fill="#111111"></path><path xmlns="http://www.w3.org/2000/svg" d="M52.124,47.035c-1.604,0-3.007,1.303-3.007,3.007s1.303,3.007,3.007,3.007s3.007-1.303,3.007-3.007  S53.828,47.035,52.124,47.035z" fill="#111111"></path><path xmlns="http://www.w3.org/2000/svg" d="M44.708,41.623c0,1.604,1.303,3.007,3.007,3.007s3.007-1.303,3.007-3.007s-1.303-3.007-3.007-3.007  C46.011,38.616,44.708,40.02,44.708,41.623z" fill="#111111"></path><path xmlns="http://www.w3.org/2000/svg" d="M43.104,47.035c-1.604,0-3.007,1.303-3.007,3.007s1.303,3.007,3.007,3.007c1.603,0,3.007-1.303,3.007-3.007  S44.808,47.035,43.104,47.035z" fill="#111111"></path><path xmlns="http://www.w3.org/2000/svg" d="M35.688,41.623c0,1.604,1.303,3.007,3.007,3.007s3.007-1.303,3.007-3.007s-1.303-3.007-3.007-3.007  C36.991,38.616,35.688,40.02,35.688,41.623z" fill="#111111"></path><path xmlns="http://www.w3.org/2000/svg" d="M31.178,50.041c0,1.604,1.303,3.007,3.007,3.007s3.007-1.303,3.007-3.007s-1.303-3.007-3.007-3.007  C32.481,47.035,31.178,48.438,31.178,50.041z" fill="#111111"></path><circle xmlns="http://www.w3.org/2000/svg" cx="67.426" cy="87.9" r="4.026" fill="#111111"></circle><circle xmlns="http://www.w3.org/2000/svg" cx="25.074" cy="87.9" r="4.026" fill="#111111"></circle><path xmlns="http://www.w3.org/2000/svg" d="M77,34.9l-55.5-3.4l-1.5-5c-0.2-0.8-1.4-3.4-7.7-3.7c-2.463-0.153-2.588,1.05-2.588,1.05C9.197,25.663,10.8,25.6,10.8,25.6  c4.4,0,6,1.1,6.2,1.5L29,67l-5.2,8.2c-0.2,0.3-1.2,1.7-0.4,3.2c0.6,1.1,1.8,1.4,3.5,1.4h43.7c0.7,0,1.2,0.8,1.2,1.4  c0,0.8,0.7,1.6,1.5,1.6c0.8,0,1.5-0.9,1.5-1.7c0-2.3-1.9-4.3-4.2-4.3H26.5l5.1-8.1l40.7-1.9c2.1,0,3.7-1.6,4.1-3.9L81.1,39  C81.1,36.7,79.2,34.9,77,34.9z M73.5,62.4c-0.1,0.3-0.3,1.4-1.3,1.4l-40.4,2l-9.4-31.4l54.5,3.2c0.6,0,1.1,0.5,1.2,1L73.5,62.4z" fill="#111111"></path></g><g id="SvgjsG1440" featurekey="n48U4P-0" transform="matrix(2.309849691120316,0,0,2.309849691120316,108.24451260464376,20.57300839743138)" fill="#111111"><path d="M7.78 5.380000000000001 c1.6667 0 3.0666 0.47 4.2 1.41 s1.7867 2.1834 1.96 3.73 l-3.04 0 c-0.10666 -0.70666 -0.46 -1.3 -1.06 -1.78 s-1.2867 -0.72 -2.06 -0.72 c-1.2267 0 -2.18 0.44 -2.86 1.32 s-1.02 2.0734 -1.02 3.58 c0 1.4667 0.34334 2.63 1.03 3.49 s1.6367 1.29 2.85 1.29 c0.90666 0 1.64 -0.27666 2.2 -0.83 s0.90666 -1.3433 1.04 -2.37 l3.04 0 c-0.16 1.8133 -0.81 3.24 -1.95 4.28 s-2.5834 1.56 -4.33 1.56 c-2.0934 0 -3.7866 -0.69 -5.08 -2.07 s-1.94 -3.1634 -1.94 -5.35 c0 -2.2134 0.64 -4.0234 1.92 -5.43 s2.98 -2.11 5.1 -2.11 z M20.92 9.38 c1.6533 0 2.96 0.50334 3.92 1.51 s1.44 2.3234 1.44 3.95 c0 1.64 -0.49 2.9566 -1.47 3.95 s-2.2766 1.49 -3.89 1.49 c-1.64 0 -2.94 -0.50334 -3.9 -1.51 s-1.44 -2.3166 -1.44 -3.93 c0 -1.6667 0.49 -2.9934 1.47 -3.98 s2.27 -1.48 3.87 -1.48 z M18.42 14.84 c0 1.0533 0.21334 1.8666 0.64 2.44 s1.0467 0.86 1.86 0.86 c0.84 0 1.47 -0.29334 1.89 -0.88 s0.63 -1.3933 0.63 -2.42 c0 -1.0667 -0.21666 -1.8867 -0.65 -2.46 s-1.0633 -0.86 -1.89 -0.86 c-0.8 0 -1.4133 0.28666 -1.84 0.86 s-0.64 1.3933 -0.64 2.46 z M34.08 9.38 c1.5067 0 2.5134 0.57332 3.02 1.72 c0.78666 -1.1467 1.8333 -1.72 3.14 -1.72 c1.2933 0 2.2434 0.32666 2.85 0.98 s0.91 1.5533 0.91 2.7 l0 6.94 l-2.84 0 l0 -5.98 c0 -0.90666 -0.13666 -1.5333 -0.41 -1.88 s-0.71668 -0.52 -1.33 -0.52 c-1.2667 0 -1.9 0.86666 -1.9 2.6 l0 5.78 l-2.84 0 l0 -6.1 c0 -0.88 -0.14 -1.48 -0.42 -1.8 s-0.71334 -0.48 -1.3 -0.48 c-0.54666 0 -1.0033 0.21666 -1.37 0.65 s-0.55 1.0033 -0.55 1.71 l0 6.02 l-2.84 0 l0 -10.34 l2.68 0 l0 1.4 l0.04 0 c0.78666 -1.12 1.84 -1.68 3.16 -1.68 z M52.059999999999995 9.38 c1.4267 0 2.5666 0.5 3.42 1.5 s1.28 2.3534 1.28 4.06 c0 1.56 -0.41 2.84 -1.23 3.84 s-1.9233 1.5 -3.31 1.5 c-1.36 0 -2.3934 -0.52 -3.1 -1.56 l-0.04 0 l0 4.92 l-2.84 0 l0 -13.98 l2.7 0 l0 1.32 l0.04 0 c0.68 -1.0667 1.7067 -1.6 3.08 -1.6 z M48.98 14.86 c0 1.0133 0.21336 1.8133 0.64002 2.4 s1.04 0.88 1.84 0.88 c0.82666 0 1.4433 -0.29334 1.85 -0.88 s0.61 -1.3867 0.61 -2.4 c0 -1.04 -0.22 -1.8567 -0.66 -2.45 s-1.0533 -0.89 -1.84 -0.89 s-1.39 0.29334 -1.81 0.88 s-0.63 1.4067 -0.63 2.46 z M64.5 9.38 c0.24 0 0.44668 0.03334 0.62002 0.1 l0 2.64 c-0.30666 -0.06666 -0.64666 -0.1 -1.02 -0.1 c-1.8667 0 -2.8 1.1067 -2.8 3.32 l0 4.66 l-2.84 0 l0 -10.34 l2.7 0 l0 1.92 l0.04 0 c0.28 -0.66666 0.72334 -1.2 1.33 -1.6 s1.2633 -0.6 1.97 -0.6 z M71 9.38 c3.0134 0.01334 4.52 0.9933 4.52 2.94 l0 5.48 c0 1.0133 0.12 1.7467 0.36 2.2 l-2.88 0 c-0.10666 -0.32 -0.17332 -0.65334 -0.19998 -1 c-0.84 0.85334 -2 1.28 -3.48 1.28 c-1.08 0 -1.9367 -0.27334 -2.57 -0.82 s-0.95 -1.3067 -0.95 -2.28 c0 -0.94666 0.3 -1.68 0.9 -2.2 c0.61334 -0.54666 1.7267 -0.89332 3.34 -1.04 c1.1467 -0.12 1.8733 -0.27 2.18 -0.45 s0.46 -0.45666 0.46 -0.83 c0 -0.46666 -0.14 -0.81332 -0.42 -1.04 s-0.74666 -0.34 -1.4 -0.34 c-0.6 0 -1.0533 0.12334 -1.36 0.37 s-0.48666 0.64332 -0.54 1.19 l-2.84 0 c0.06666 -1.1333 0.53332 -1.9933 1.4 -2.58 s2.0266 -0.88 3.48 -0.88 z M68.64 17.06 c0 0.88 0.58 1.32 1.74 1.32 c1.52 -0.01334 2.2866 -0.79334 2.3 -2.34 l0 -1.1 c-0.22666 0.22666 -0.8 0.39332 -1.72 0.49998 c-0.8 0.09334 -1.3867 0.25668 -1.76 0.49002 s-0.56 0.61 -0.56 1.13 z M88 5.720000000000001 l3.34 9.82 l0.04 0 l3.16 -9.82 l4.42 0 l0 14.28 l-2.94 0 l0 -10.12 l-0.04 0 l-3.5 10.12 l-2.42 0 l-3.5 -10.02 l-0.04 0 l0 10.02 l-2.94 0 l0 -14.28 l4.42 0 z M106.18 9.38 c3.0134 0.01334 4.52 0.9933 4.52 2.94 l0 5.48 c0 1.0133 0.12 1.7467 0.36 2.2 l-2.88 0 c-0.10666 -0.32 -0.17332 -0.65334 -0.19998 -1 c-0.84 0.85334 -2 1.28 -3.48 1.28 c-1.08 0 -1.9367 -0.27334 -2.57 -0.82 s-0.95 -1.3067 -0.95 -2.28 c0 -0.94666 0.3 -1.68 0.9 -2.2 c0.61334 -0.54666 1.7267 -0.89332 3.34 -1.04 c1.1467 -0.12 1.8733 -0.27 2.18 -0.45 s0.46 -0.45666 0.46 -0.83 c0 -0.46666 -0.14 -0.81332 -0.42 -1.04 s-0.74666 -0.34 -1.4 -0.34 c-0.6 0 -1.0533 0.12334 -1.36 0.37 s-0.48666 0.64332 -0.54 1.19 l-2.84 0 c0.06666 -1.1333 0.53332 -1.9933 1.4 -2.58 s2.0266 -0.88 3.48 -0.88 z M103.82000000000001 17.06 c0 0.88 0.58 1.32 1.74 1.32 c1.52 -0.01334 2.2866 -0.79334 2.3 -2.34 l0 -1.1 c-0.22666 0.22666 -0.8 0.39332 -1.72 0.49998 c-0.8 0.09334 -1.3867 0.25668 -1.76 0.49002 s-0.56 0.61 -0.56 1.13 z M110.04 5.380000000000001 l-3.08 2.84 l-1.98 0 l1.92 -2.84 l3.14 0 z M117.14000000000001 9.38 c1.3867 0 2.47 0.28002 3.25 0.84002 s1.2167 1.38 1.31 2.46 l-2.7 0 c-0.04 -0.49334 -0.22 -0.85 -0.54 -1.07 s-0.78666 -0.33 -1.4 -0.33 c-0.53334 0 -0.93 0.08 -1.19 0.24 s-0.39 0.4 -0.39 0.72 c0 0.24 0.08666 0.44 0.26 0.6 s0.43668 0.3 0.79002 0.42 s0.74334 0.22 1.17 0.3 c1.2933 0.25334 2.2066 0.51334 2.74 0.78 s0.92334 0.58666 1.17 0.96 s0.37 0.83334 0.37 1.38 c0 1.16 -0.42334 2.05 -1.27 2.67 s-1.9967 0.93 -3.45 0.93 c-1.52 0 -2.7034 -0.32666 -3.55 -0.98 s-1.2833 -1.54 -1.31 -2.66 l2.7 0 c0 0.53334 0.20666 0.95668 0.62 1.27 s0.93334 0.47 1.56 0.47 c0.53334 0 0.97668 -0.11666 1.33 -0.35 s0.53 -0.55668 0.53 -0.97002 c0 -0.26666 -0.11 -0.48666 -0.33 -0.66 s-0.53 -0.32668 -0.93 -0.46002 s-1.02 -0.28668 -1.86 -0.46002 c-0.66666 -0.13334 -1.26 -0.31334 -1.78 -0.54 s-0.91666 -0.52332 -1.19 -0.88998 s-0.41 -0.81666 -0.41 -1.35 c0 -0.68 0.16334 -1.2733 0.49 -1.78 s0.82666 -0.89 1.5 -1.15 s1.51 -0.39 2.51 -0.39 z" fill="#111111"></path></g></svg>